<svg width="412" height="46" viewBox="0 0 412 46" fill="none" xmlns="http://www.w3.org/2000/svg">
<path d="M14.91 32.91H34.006C34.4607 32.91 34.8533 33.0753 35.184 33.406C35.5147 33.7367 35.68 34.1293 35.68 34.584V43.326C35.68 43.7807 35.5147 44.1733 35.184 44.504C34.8533 44.8347 34.4607 45 34.006 45H1.704C1.24933 45 0.856667 44.8347 0.526 44.504C0.195334 44.1733 0.0300003 43.7807 0.0300003 43.326V3.274C0.0300003 2.81933 0.195334 2.42667 0.526 2.096C0.856667 1.76533 1.24933 1.6 1.704 1.6H33.51C33.9647 1.6 34.3573 1.76533 34.688 2.096C35.0187 2.42667 35.184 2.81933 35.184 3.274V12.016C35.184 12.4707 35.0187 12.8633 34.688 13.194C34.3573 13.5247 33.9647 13.69 33.51 13.69H14.91V17.596H32.146C32.6007 17.596 32.9933 17.7613 33.324 18.092C33.6547 18.4227 33.82 18.8153 33.82 19.27V27.33C33.82 27.7847 33.6547 28.1773 33.324 28.508C32.9933 28.8387 32.6007 29.004 32.146 29.004H14.91V32.91ZM77.9214 1.6H87.7174C88.172 1.6 88.5647 1.76533 88.8954 2.096C89.226 2.42667 89.3914 2.81933 89.3914 3.274V43.326C89.3914 43.7807 89.226 44.1733 88.8954 44.504C88.5647 44.8347 88.172 45 87.7174 45H76.4954C76.0407 45 75.648 44.8347 75.3174 44.504C74.9867 44.1733 74.8214 43.7807 74.8214 43.326V26.338L70.7294 33.034C70.068 34.0673 69.3034 34.584 68.4354 34.584H64.0954C63.2274 34.584 62.4627 34.0673 61.8014 33.034L57.7094 26.338V43.326C57.7094 43.7807 57.544 44.1733 57.2134 44.504C56.8827 44.8347 56.49 45 56.0354 45H44.8134C44.3587 45 43.966 44.8347 43.6354 44.504C43.3047 44.1733 43.1394 43.7807 43.1394 43.326V3.274C43.1394 2.81933 43.3047 2.42667 43.6354 2.096C43.966 1.76533 44.3587 1.6 44.8134 1.6H54.6094C55.7667 1.6 56.6554 2.158 57.2754 3.274L66.2654 18.154L75.2554 3.274C75.8754 2.158 76.764 1.6 77.9214 1.6ZM120.018 17.1C120.473 16.5627 120.7 15.922 120.7 15.178C120.7 14.434 120.473 13.7727 120.018 13.194C119.605 12.574 118.985 12.264 118.158 12.264H112.95V17.906H118.158C118.985 17.906 119.605 17.6373 120.018 17.1ZM112.95 28.26V34.336H118.716C119.667 34.336 120.369 34.026 120.824 33.406C121.32 32.7447 121.568 32.0213 121.568 31.236V31.174C121.568 30.3887 121.299 29.7067 120.762 29.128C120.266 28.5493 119.584 28.26 118.716 28.26H112.95ZM120.328 45H99.1239C98.6693 45 98.2766 44.8347 97.9459 44.504C97.6153 44.1733 97.4499 43.7807 97.4499 43.326V3.274C97.4499 2.81933 97.6153 2.42667 97.9459 2.096C98.2766 1.76533 98.6693 1.6 99.1239 1.6H119.708C125.577 1.6 129.897 2.67466 132.666 4.824C135.477 6.932 136.882 10.1353 136.882 14.434V14.62C136.882 16.3973 136.365 17.9887 135.332 19.394C134.299 20.758 133.162 21.75 131.922 22.37C133.575 23.0313 134.96 24.2093 136.076 25.904C137.233 27.5573 137.812 29.376 137.812 31.36C137.812 40.4533 131.984 45 120.328 45ZM184.241 42.954C184.365 43.202 184.427 43.4707 184.427 43.76C184.427 44.0493 184.283 44.3387 183.993 44.628C183.745 44.876 183.435 45 183.063 45H170.353C169.072 45 168.183 44.442 167.687 43.326L162.355 31.484H159.813V43.326C159.813 43.7807 159.648 44.1733 159.317 44.504C158.987 44.8347 158.594 45 158.139 45H145.987C145.533 45 145.14 44.8347 144.809 44.504C144.479 44.1733 144.313 43.7807 144.313 43.326V3.274C144.313 2.81933 144.479 2.42667 144.809 2.096C145.14 1.76533 145.533 1.6 145.987 1.6H164.339C170.291 1.6 174.941 2.94333 178.289 5.63C181.637 8.27533 183.311 12.0987 183.311 17.1C183.311 22.06 181.079 25.966 176.615 28.818L184.241 42.954ZM159.813 13.132V19.704H164.339C165.249 19.704 165.951 19.4147 166.447 18.836C166.943 18.216 167.191 17.4513 167.191 16.542C167.191 15.6327 166.943 14.8473 166.447 14.186C165.993 13.4833 165.29 13.132 164.339 13.132H159.813ZM194.731 5.568C198.533 2.50933 203.555 0.979998 209.797 0.979998C216.038 0.979998 221.039 2.53 224.801 5.63C228.603 8.68866 230.505 13.008 230.505 18.588V28.26C230.505 33.9227 228.624 38.242 224.863 41.218C221.143 44.1527 216.121 45.62 209.797 45.62C203.473 45.62 198.43 44.1527 194.669 41.218C190.949 38.242 189.089 33.9227 189.089 28.26V18.588C189.089 12.9667 190.969 8.62666 194.731 5.568ZM206.449 32.29C207.275 33.1167 208.391 33.53 209.797 33.53C211.202 33.53 212.318 33.1167 213.145 32.29C213.971 31.4633 214.385 30.2027 214.385 28.508V18.092C214.385 16.4387 213.971 15.1987 213.145 14.372C212.318 13.504 211.202 13.07 209.797 13.07C208.391 13.07 207.275 13.504 206.449 14.372C205.622 15.1987 205.209 16.4387 205.209 18.092V28.508C205.209 30.2027 205.622 31.4633 206.449 32.29ZM256.97 1.6H274.826C280.86 1.6 285.82 3.10866 289.706 6.126C293.632 9.102 295.596 13.2767 295.596 18.65V27.888C295.596 33.5093 293.694 37.7667 289.892 40.66C286.089 43.5533 281.088 45 274.888 45H256.97C256.515 45 256.122 44.8347 255.792 44.504C255.461 44.1733 255.296 43.7807 255.296 43.326V3.274C255.296 2.81933 255.461 2.42667 255.792 2.096C256.122 1.76533 256.515 1.6 256.97 1.6ZM270.796 13.69V32.91H274.826C276.231 32.91 277.347 32.4967 278.174 31.67C279.042 30.802 279.476 29.5413 279.476 27.888V18.65C279.476 15.3433 277.926 13.69 274.826 13.69H270.796ZM342.329 42.954C342.453 43.202 342.515 43.4707 342.515 43.76C342.515 44.0493 342.37 44.3387 342.081 44.628C341.833 44.876 341.523 45 341.151 45H328.441C327.16 45 326.271 44.442 325.775 43.326L320.443 31.484H317.901V43.326C317.901 43.7807 317.736 44.1733 317.405 44.504C317.074 44.8347 316.682 45 316.227 45H304.075C303.62 45 303.228 44.8347 302.897 44.504C302.566 44.1733 302.401 43.7807 302.401 43.326V3.274C302.401 2.81933 302.566 2.42667 302.897 2.096C303.228 1.76533 303.62 1.6 304.075 1.6H322.427C328.379 1.6 333.029 2.94333 336.377 5.63C339.725 8.27533 341.399 12.0987 341.399 17.1C341.399 22.06 339.167 25.966 334.703 28.818L342.329 42.954ZM317.901 13.132V19.704H322.427C323.336 19.704 324.039 19.4147 324.535 18.836C325.031 18.216 325.279 17.4513 325.279 16.542C325.279 15.6327 325.031 14.8473 324.535 14.186C324.08 13.4833 323.378 13.132 322.427 13.132H317.901ZM362.739 45H350.091C349.636 45 349.243 44.8347 348.913 44.504C348.582 44.1733 348.417 43.7807 348.417 43.326V3.274C348.417 2.81933 348.582 2.42667 348.913 2.096C349.243 1.76533 349.636 1.6 350.091 1.6H362.739C363.193 1.6 363.586 1.76533 363.917 2.096C364.247 2.42667 364.413 2.81933 364.413 3.274V43.326C364.413 43.7807 364.247 44.1733 363.917 44.504C363.586 44.8347 363.193 45 362.739 45ZM374.128 1.6H392.604C398.556 1.6 403.206 2.88133 406.554 5.444C409.902 8.00666 411.576 11.7887 411.576 16.79C411.576 21.7913 409.902 25.4907 406.554 27.888C403.247 30.2853 398.597 31.484 392.604 31.484H388.574V43.326C388.574 43.7807 388.408 44.1733 388.078 44.504C387.747 44.8347 387.354 45 386.9 45H374.128C373.673 45 373.28 44.8347 372.95 44.504C372.619 44.1733 372.454 43.7807 372.454 43.326V3.274C372.454 2.81933 372.619 2.42667 372.95 2.096C373.28 1.76533 373.673 1.6 374.128 1.6ZM388.264 13.132V20.014H392.604C393.348 20.014 394.009 19.7453 394.588 19.208C395.166 18.6293 395.456 17.8233 395.456 16.79C395.456 15.7567 395.228 14.8887 394.774 14.186C394.319 13.4833 393.596 13.132 392.604 13.132H388.264Z" fill="currentColor"/>
</svg>
